<?xml version="1.0" encoding="utf-8"?>
<!-- Generator: Adobe Illustrator 24.3.0, SVG Export Plug-In . SVG Version: 6.00 Build 0)  -->
<svg version="1.1" id="Layer_1" xmlns="http://www.w3.org/2000/svg" xmlns:xlink="http://www.w3.org/1999/xlink" x="0px" y="0px"
	 viewBox="0 0 1000 1000" style="enable-background:new 0 0 1000 1000;" xml:space="preserve">
<style type="text/css">
	.st0{fill:#142433;}
	.st1{fill:#FFFFFF;}
</style>
<g>
	<g>
		<path class="st0" d="M271.7,435h-94.8c-13.4,0-24.2,10.8-24.2,24.2v81.6c0,13.4,10.8,24.2,24.2,24.2h93.8
			c13.4,0,24.2-10.8,24.2-24.2v-70.1h-21.3v13.4h7.8v56.7c0,0.2,0,0.4,0,0.6l-0.1,0.8c-0.1,0.6-0.2,1.3-0.4,1.9c0,0,0,0.1,0,0.1
			c-0.1,0.2-0.2,0.4-0.2,0.7c0,0.1-0.1,0.2-0.1,0.3c-0.1,0.2-0.2,0.3-0.2,0.5c-0.1,0.1-0.1,0.3-0.2,0.4c-0.1,0.1-0.2,0.3-0.2,0.4
			c-0.1,0.1-0.2,0.3-0.3,0.4c-0.1,0.1-0.2,0.3-0.3,0.4c-0.1,0.1-0.2,0.2-0.3,0.3c-0.1,0.2-0.3,0.3-0.4,0.5c-0.1,0.1-0.1,0.1-0.2,0.2
			c-0.2,0.2-0.4,0.4-0.5,0.5c0,0,0,0-0.1,0.1c-1.9,1.7-4.4,2.6-7.1,2.6h-37.6v0h-56.2c-6,0-10.8-4.8-10.8-10.8v-81.6
			c0-6,4.8-10.8,10.8-10.8h95.1c5.3,0,9.6,4.3,9.6,9.6v4.1h13.4v-3.9C294.9,445.4,284.5,435,271.7,435z"/>
		<path class="st0" d="M260.1,533.4v-56.9c0-6.1-7.8-8.8-11.5-3.9l-0.5,0.7c-6.4,8.4-14.6,13-23,13c0,0-0.1,0-0.1,0
			c-8.3,0-16.4-4.5-22.8-12.7l-0.8-1.1c-3.8-4.8-11.5-2.2-11.5,4v56.9h13.4v-40.5c6.7,4.5,14.1,6.8,21.7,6.8c0.1,0,0.1,0,0.2,0
			c7.6,0,15-2.4,21.6-6.8v40.5H260.1z"/>
		<polygon class="st0" points="373.8,512.3 353.5,475.2 326.5,475.2 326.5,531.1 342.9,531.1 342.4,487.9 366.8,531.1 380.4,531.1 
			405.2,487.9 404.3,531.1 420.9,531.1 420.9,475.2 394.1,475.2 		"/>
		<polygon class="st0" points="439.5,491.1 447.1,502.3 467.4,488.2 467.4,531.1 483.6,531.1 483.6,475.2 463.4,475.2 		"/>
		<polygon class="st0" points="553.2,475.2 536.2,475.2 536.2,531.1 591.7,531.1 591.7,517.2 553.2,517.2 		"/>
		<path class="st0" d="M630.2,475.2l-31.4,55.9H618l5.4-10h36l5.5,10h18.6L653,475.2H630.2z M629.5,509.4l11.9-22.3l12.1,22.3H629.5
			z"/>
		<path class="st0" d="M755.3,502.5c5.3-1,7.8-4.8,7.8-12.1c0-7.1-1.8-10.9-6.4-13.2c-2.9-1.4-6.5-2-12.9-2h-50.5v55.9h52.8
			c6.5,0,10.1-0.6,12.7-1.9c4.4-2.3,6.5-6.8,6.5-13.8C765.4,507.2,762.8,503.9,755.3,502.5z M710,487.6h28.2c3.3,0,4.1,0.1,5.2,0.4
			c1.8,0.7,2.9,2.3,2.9,4.6c0,1.9-0.8,3.4-2.2,4.2c-1.1,0.5-2.3,0.7-5.5,0.7H710V487.6z M745.6,518.2c-1.1,0.3-1.8,0.4-5.2,0.4H710
			v-10.2h30c3.8,0,4.4,0.1,5.4,0.4c1.8,0.7,2.8,2.3,2.8,4.8C748.3,516,747.3,517.7,745.6,518.2z"/>
		<path class="st0" d="M832.5,497c-2.8-0.2-10.4-0.4-11.9-0.4h-15.8c-5.5-0.1-5.9-0.2-6.9-0.4c-2.4-0.6-3.6-2.1-3.6-4.4
			c0-3.2,1.5-4.4,6-4.7c2.7-0.2,10-0.3,15.4-0.3c11,0,12.7,0.7,12.7,5.5H845c0-8.4-1.3-11.8-5.1-14.4c-4-2.6-8.6-3.1-28.2-3.1
			c-12.2,0-18.8,0.4-23.3,1.6c-8,1.9-10.9,6.2-10.9,16.3c0,7.6,1.8,12.1,5.9,14.2c3.6,1.8,7.9,2.4,18.2,2.4H817
			c8.8,0.1,8.8,0.1,10.6,0.7c1.8,0.6,2.8,2.3,2.8,4.5c0,4.6-2.3,5.2-22,5.2c-5.4,0-10.1-0.3-11.4-0.8c-2-0.8-2.4-1.7-2.6-5.5h-16.7
			c-0.1,1.2-0.1,2.3-0.1,2.8c0,6.6,1.8,10.9,5.2,12.6c4.9,2.5,9.2,2.9,28.6,2.9c12.2,0,20.5-0.5,24.6-1.4
			c8.2-1.8,11.2-6.3,11.2-16.6C847.3,502.2,843.1,497.5,832.5,497z"/>
	</g>
</g>
</svg>
